<svg id="Capa_1" enable-background="new 0 0 512 512" height="512" viewBox="0 0 512 512" width="512" xmlns="http://www.w3.org/2000/svg"><g><path d="m56 220c8.284 0 15-6.716 15-15v-45h45c8.284 0 15-6.716 15-15s-6.716-15-15-15h-60c-8.284 0-15 6.716-15 15v60c0 8.284 6.716 15 15 15z"/><path d="m396 160h45v45c0 8.284 6.716 15 15 15s15-6.716 15-15v-60c0-8.284-6.716-15-15-15h-60c-8.284 0-15 6.716-15 15s6.716 15 15 15z"/><path d="m361 96.473v-61.512c0-5.928-3.491-11.3-8.908-13.707-63.763-28.339-128.422-28.339-192.185 0-5.416 2.407-8.907 7.779-8.907 13.707v61.512c0 65.751 38.824 125.491 98.908 152.195 3.879 1.724 8.306 1.724 12.185 0 60.083-26.704 98.907-86.444 98.907-152.195zm-62.573 17.881-42.427 42.427c-5.858 5.858-15.355 5.858-21.213 0l-21.213-21.213c-5.858-5.858-5.858-15.355 0-21.213s15.355-5.858 21.213 0l10.607 10.607 31.82-31.82c5.858-5.858 15.355-5.858 21.213 0 5.857 5.857 5.857 15.355 0 21.212z"/><path d="m477 262h-160c-19.299 0-35 15.701-35 35v75h230v-75c0-19.299-15.701-35-35-35z"/><path d="m282 417c0 19.299 15.701 35 35 35h45v30h-15c-8.284 0-15 6.716-15 15s6.716 15 15 15h100c8.284 0 15-6.716 15-15s-6.716-15-15-15h-15v-30h45c19.299 0 35-15.701 35-35v-15h-230z"/><path d="m195 262h-160c-19.299 0-35 15.701-35 35v75h230v-75c0-19.299-15.701-35-35-35z"/><path d="m0 417c0 19.299 15.701 35 35 35h45v30h-15c-8.284 0-15 6.716-15 15s6.716 15 15 15h100c8.284 0 15-6.716 15-15s-6.716-15-15-15h-15v-30h45c19.299 0 35-15.701 35-35v-15h-230z"/></g></svg>